# xmcd CD database file
#
# Track frame offsets:
#	182
#	17030
#	36270
#	48782
#	68342
#	85202
#	103840
#	121307
#	133190
#	152105
#	152897
#	170580
#	184005
#	198607
#	213370
#	229967
#	249240
#	270430
#	294437
#	311172
#
# Disc length: 4259 seconds
#
# Revision: 0
# Processed by: cddbd v1.4PL0 Copyright (c) Steve Scherf et al.
# Submitted via: CDex 1.50Beta5
#
DISCID=1910a114
DTITLE=Count Basie - Live with Ella Fitzgerald
DYEAR=1971
DGENRE=Jazz
TTITLE0=St. Louis Blues
TTITLE1=Willow Weep For Me
TTITLE2=Close to You
TTITLE3=Mas Que Nada
TTITLE4=Things Ain't What They Used to Be
TTITLE5=They Can't Take That Away From Me
TTITLE6=Li'l Darlin'
TTITLE7=Manteca
TTITLE8=C Jam Blues
TTITLE9=Introduction
TTITLE10=Splanky
TTITLE11=Hittin' Twelve
TTITLE12=One Mint Julep
TTITLE13=Bye Bye Blackbird
TTITLE14=Good Time Blues
TTITLE15=April in Paris
TTITLE16=Basie
TTITLE17=Lil'l Darlin'
TTITLE18=Cute
TTITLE19=One O'Clock Jump
EXTD=YEAR: 1971
EXTT0=
EXTT1=
EXTT2=
EXTT3=
EXTT4=
EXTT5=
EXTT6=
EXTT7=
EXTT8=
EXTT9=
EXTT10=
EXTT11=
EXTT12=
EXTT13=
EXTT14=
EXTT15=
EXTT16=
EXTT17=
EXTT18=
EXTT19=
PLAYORDER=
